<?xml version="1.0" encoding="UTF-8"?>
<svg id="Layer_2" xmlns="http://www.w3.org/2000/svg" viewBox="0 0 77.65 117.45">
  <defs>
    <style>
      .cls-1 {
        fill: none;
        stroke: #000;
        stroke-miterlimit: 10;
      }
    </style>
  </defs>
  <g id="Layer_1-2" data-name="Layer_1">
    <g>
      <rect class="cls-1" x=".53" y=".5" width="76.62" height="116.45"/>
      <line class="cls-1" y1="58.73" x2="76.67" y2="58.73"/>
      <g>
        <path d="M24.41,62.75v9.01H4.54v-9.01h19.86M25.41,61.75H3.54v11.01h21.86v-11.01h0Z"/>
        <path d="M48.78,62.75v9.01h-19.86v-9.01h19.86M49.78,61.75h-21.86v11.01h21.86v-11.01h0Z"/>
        <path d="M73.16,62.75v9.01h-19.86v-9.01h19.86M74.16,61.75h-21.86v11.01h21.86v-11.01h0Z"/>
      </g>
      <g>
        <path d="M24.41,76.52v9.01H4.54v-9.01h19.86M25.41,75.52H3.54v11.01h21.86v-11.01h0Z"/>
        <path d="M48.78,76.52v9.01h-19.86v-9.01h19.86M49.78,75.52h-21.86v11.01h21.86v-11.01h0Z"/>
        <path d="M73.16,76.52v9.01h-19.86v-9.01h19.86M74.16,75.52h-21.86v11.01h21.86v-11.01h0Z"/>
      </g>
      <g>
        <path d="M24.41,90.29v9.01H4.54v-9.01h19.86M25.41,89.29H3.54v11.01h21.86v-11.01h0Z"/>
        <path d="M48.78,90.29v9.01h-19.86v-9.01h19.86M49.78,89.29h-21.86v11.01h21.86v-11.01h0Z"/>
        <path d="M73.16,90.29v9.01h-19.86v-9.01h19.86M74.16,89.29h-21.86v11.01h21.86v-11.01h0Z"/>
      </g>
      <g>
        <path d="M24.41,104.06v9.01H4.54v-9.01h19.86M25.41,103.06H3.54v11.01h21.86v-11.01h0Z"/>
        <path d="M48.78,104.06v9.01h-19.86v-9.01h19.86M49.78,103.06h-21.86v11.01h21.86v-11.01h0Z"/>
        <path d="M73.16,104.06v9.01h-19.86v-9.01h19.86M74.16,103.06h-21.86v11.01h21.86v-11.01h0Z"/>
      </g>
      <g>
        <path d="M24.41,4.38v9.01H4.54V4.38h19.86M25.41,3.38H3.54v11.01h21.86V3.38h0Z"/>
        <path d="M48.78,4.38v9.01h-19.86V4.38h19.86M49.78,3.38h-21.86v11.01h21.86V3.38h0Z"/>
        <path d="M73.16,4.38v9.01h-19.86V4.38h19.86M74.16,3.38h-21.86v11.01h21.86V3.38h0Z"/>
      </g>
      <g>
        <path d="M24.41,18.15v9.01H4.54v-9.01h19.86M25.41,17.15H3.54v11.01h21.86v-11.01h0Z"/>
        <path d="M48.78,18.15v9.01h-19.86v-9.01h19.86M49.78,17.15h-21.86v11.01h21.86v-11.01h0Z"/>
        <path d="M73.16,18.15v9.01h-19.86v-9.01h19.86M74.16,17.15h-21.86v11.01h21.86v-11.01h0Z"/>
      </g>
      <g>
        <path d="M24.41,31.92v9.01H4.54v-9.01h19.86M25.41,30.92H3.54v11.01h21.86v-11.01h0Z"/>
        <path d="M48.78,31.92v9.01h-19.86v-9.01h19.86M49.78,30.92h-21.86v11.01h21.86v-11.01h0Z"/>
        <path d="M73.16,31.92v9.01h-19.86v-9.01h19.86M74.16,30.92h-21.86v11.01h21.86v-11.01h0Z"/>
      </g>
      <g>
        <path d="M24.41,45.69v9.01H4.54v-9.01h19.86M25.41,44.69H3.54v11.01h21.86v-11.01h0Z"/>
        <path d="M48.78,45.69v9.01h-19.86v-9.01h19.86M49.78,44.69h-21.86v11.01h21.86v-11.01h0Z"/>
        <path d="M73.16,45.69v9.01h-19.86v-9.01h19.86M74.16,44.69h-21.86v11.01h21.86v-11.01h0Z"/>
      </g>
    </g>
  </g>
</svg>